<svg width="80" height="100" viewBox="0 0 80 100" fill="none" xmlns="http://www.w3.org/2000/svg">
<rect x="1" y="21" width="78" height="59" fill="#F4FAFF" stroke="#113264" stroke-width="2"/>
<path d="M40 61C50.924 61 60.7645 63.2158 67.8369 66.752C74.9692 70.3181 79 75.06 79 80C79 84.94 74.9692 89.6819 67.8369 93.248C60.7645 96.7842 50.924 99 40 99C29.076 99 19.2355 96.7842 12.1631 93.248C5.03081 89.6819 1 84.94 1 80C1 75.06 5.03081 70.3181 12.1631 66.752C19.2355 63.2158 29.076 61 40 61Z" fill="#F4FAFF" stroke="#113264" stroke-width="2"/>
<rect x="2" y="69" width="76" height="12" fill="#F4FAFF"/>
<path d="M40 41C50.924 41 60.7645 43.2158 67.8369 46.752C74.9692 50.3181 79 55.06 79 60C79 64.94 74.9692 69.6819 67.8369 73.248C60.7645 76.7842 50.924 79 40 79C29.076 79 19.2355 76.7842 12.1631 73.248C5.03081 69.6819 1 64.94 1 60C1 55.06 5.03081 50.3181 12.1631 46.752C19.2355 43.2158 29.076 41 40 41Z" fill="#F4FAFF" stroke="#113264" stroke-width="2"/>
<rect x="2" y="48" width="76" height="12" fill="#F4FAFF"/>
<path d="M40 21C50.924 21 60.7645 23.2158 67.8369 26.752C74.9692 30.3181 79 35.06 79 40C79 44.94 74.9692 49.6819 67.8369 53.248C60.7645 56.7842 50.924 59 40 59C29.076 59 19.2355 56.7842 12.1631 53.248C5.03081 49.6819 1 44.94 1 40C1 35.06 5.03081 30.3181 12.1631 26.752C19.2355 23.2158 29.076 21 40 21Z" fill="#F4FAFF" stroke="#113264" stroke-width="2"/>
<rect x="2" y="28" width="76" height="12" fill="#F4FAFF"/>
<path d="M40 1C50.924 1 60.7645 3.2158 67.8369 6.75195C74.9692 10.3181 79 15.06 79 20C79 24.94 74.9692 29.6819 67.8369 33.248C60.7645 36.7842 50.924 39 40 39C29.076 39 19.2355 36.7842 12.1631 33.248C5.03081 29.6819 1 24.94 1 20C1 15.06 5.03081 10.3181 12.1631 6.75195C19.2355 3.2158 29.076 1 40 1Z" fill="#F4FAFF" stroke="#113264" stroke-width="2"/>
</svg>
